<svg width="29" height="31" viewBox="0 0 29 31" fill="none" xmlns="http://www.w3.org/2000/svg">
<path d="M11.6417 2.00734C11.8721 1.43802 12.2672 0.95046 12.7764 0.607156C13.2857 0.263851 13.8858 0.0804443 14.5 0.0804443C15.1141 0.0804443 15.7143 0.263851 16.2235 0.607156C16.7328 0.95046 17.1279 1.43802 17.3582 2.00734C19.638 2.63431 21.6489 3.99232 23.0821 5.87281C24.5153 7.7533 25.2916 10.0523 25.2917 12.4167V19.6579L28.116 23.8944C28.2709 24.1266 28.3599 24.3964 28.3734 24.6752C28.3869 24.954 28.3246 25.2312 28.1929 25.4773C28.0612 25.7234 27.8652 25.9291 27.6258 26.0726C27.3863 26.216 27.1124 26.2917 26.8333 26.2917H19.8419C19.6562 27.576 19.0141 28.7505 18.033 29.6C17.052 30.4495 15.7977 30.917 14.5 30.917C13.2023 30.917 11.948 30.4495 10.9669 29.6C9.98589 28.7505 9.34373 27.576 9.15811 26.2917H2.16665C1.88755 26.2917 1.61366 26.216 1.37422 26.0726C1.13478 25.9291 0.938771 25.7234 0.807098 25.4773C0.675424 25.2312 0.61303 24.954 0.626572 24.6752C0.640113 24.3964 0.729082 24.1266 0.883987 23.8944L3.70832 19.6579V12.4167C3.70832 7.44634 7.06915 3.25917 11.6417 2.00734ZM12.3201 26.2917C12.4793 26.7428 12.7745 27.1335 13.1651 27.4099C13.5557 27.6862 14.0223 27.8346 14.5008 27.8346C14.9792 27.8346 15.4459 27.6862 15.8364 27.4099C16.227 27.1335 16.5222 26.7428 16.6814 26.2917H12.3201ZM14.5 4.70834C12.4556 4.70834 10.495 5.52046 9.04937 6.96606C7.60378 8.41165 6.79165 10.3723 6.79165 12.4167V20.125C6.79172 20.4295 6.7016 20.7273 6.53265 20.9806L5.04803 23.2083H23.9504L22.4658 20.9806C22.2974 20.7271 22.2078 20.4294 22.2083 20.125V12.4167C22.2083 10.3723 21.3962 8.41165 19.9506 6.96606C18.505 5.52046 16.5444 4.70834 14.5 4.70834Z" fill="#1D1D1D"/>
</svg>
