<svg width="146" height="39" viewBox="0 0 146 39" fill="none" xmlns="http://www.w3.org/2000/svg">
<g clip-path="url(#clip0_1348_77)">
<path d="M29.1143 0V24.8275L36.3576 24.8814V39L43.4112 24.8275H61.7093V0H29.1143Z" fill="#1D1D1C"/>
<mask id="mask0_1348_77" style="mask-type:luminance" maskUnits="userSpaceOnUse" x="0" y="0" width="146" height="39">
<path d="M146 0H0V39H146V0Z" fill="white"/>
</mask>
<g mask="url(#mask0_1348_77)">
<path d="M54.0702 10.3102C54.0624 10.3548 54.0624 10.4003 54.0702 10.4449C54.0742 10.5322 54.1109 10.6149 54.1731 10.6767C54.2353 10.7385 54.3185 10.7749 54.4064 10.7789C54.4755 10.7769 54.5426 10.7556 54.6001 10.7175C54.6577 10.6794 54.7032 10.626 54.7317 10.5634L56.3582 6.49641C56.3677 6.45384 56.3677 6.4097 56.3582 6.36713C56.3555 6.27887 56.3194 6.19487 56.2571 6.13194C56.1948 6.06901 56.1108 6.0318 56.022 6.02776C55.9529 6.02976 55.8858 6.05103 55.8283 6.08913C55.7707 6.12723 55.7252 6.18063 55.6967 6.24323L54.0702 10.3102ZM52.2919 10.0678C52.0803 10.1273 51.8612 10.1563 51.6413 10.154C51.5547 10.1625 51.4673 10.1517 51.3854 10.1224C51.3035 10.0931 51.2293 10.0461 51.168 9.98469C51.1067 9.92329 51.06 9.8491 51.0312 9.7675C51.0024 9.6859 50.9923 9.59895 51.0016 9.51298V8.5703C50.9931 8.48476 51.0039 8.39842 51.0331 8.3175C51.0623 8.23658 51.1091 8.16308 51.1703 8.1023C51.2315 8.04152 51.3054 7.99497 51.3869 7.96598C51.4683 7.937 51.5552 7.9263 51.6413 7.93467C51.8801 7.93194 52.1115 8.01627 52.2919 8.17169V10.0678ZM50.3184 9.45373C50.3083 9.62922 50.3355 9.80488 50.3983 9.96921C50.4611 10.1335 50.5581 10.2829 50.6829 10.4074C50.8078 10.532 50.9577 10.629 51.1228 10.692C51.288 10.7551 51.4646 10.7829 51.6413 10.7735C51.9973 10.7741 52.3509 10.7158 52.6877 10.6011C52.7711 10.5722 52.8435 10.5184 52.895 10.447C52.9464 10.3757 52.9744 10.2903 52.975 10.2025V6.37251C52.975 6.28251 52.9391 6.19619 52.875 6.13255C52.811 6.0689 52.7241 6.03315 52.6335 6.03315C52.5429 6.03315 52.456 6.0689 52.392 6.13255C52.3279 6.19619 52.2919 6.28251 52.2919 6.37251V7.4768C52.0909 7.37133 51.8685 7.3124 51.6413 7.30442C51.4647 7.29337 51.2877 7.3198 51.1222 7.38194C50.9567 7.44409 50.8063 7.54053 50.6812 7.66485C50.5561 7.78918 50.459 7.93854 50.3965 8.10302C50.3339 8.26749 50.3073 8.44331 50.3184 8.61879V9.45373ZM47.0654 10.3102C47.0552 10.3545 47.0552 10.4006 47.0654 10.4449C47.0655 10.5244 47.0937 10.6013 47.1451 10.6622C47.1964 10.7232 47.2677 10.7643 47.3464 10.7784C47.4251 10.7925 47.5063 10.7787 47.5758 10.7394C47.6454 10.7001 47.6988 10.6378 47.7269 10.5634L49.3534 6.49641C49.363 6.45384 49.363 6.4097 49.3534 6.36713C49.3546 6.28718 49.3273 6.20939 49.2764 6.14746C49.2255 6.08553 49.1542 6.04345 49.0751 6.02864C48.996 6.01383 48.9142 6.02723 48.8441 6.06649C48.774 6.10575 48.7201 6.16834 48.6919 6.24323L47.0654 10.3102ZM44.9998 9.39986C45.2438 9.48605 45.4444 9.56685 45.4444 9.80925C45.4444 10.0517 45.2763 10.154 44.9564 10.154C44.718 10.16 44.4817 10.1082 44.2679 10.0032C44.2209 9.97825 44.1692 9.96355 44.1161 9.96008C44.0381 9.95842 43.9621 9.98416 43.9014 10.0328C43.8407 10.0814 43.7992 10.1497 43.7843 10.2257C43.7694 10.3018 43.782 10.3806 43.8199 10.4483C43.8578 10.516 43.9185 10.5682 43.9914 10.5957C44.2927 10.7229 44.6183 10.7836 44.9456 10.7735C45.0924 10.7868 45.2403 10.7702 45.3805 10.7247C45.5206 10.6792 45.6499 10.6059 45.7605 10.5091C45.8712 10.4123 45.9607 10.2941 46.0238 10.1617C46.0869 10.0293 46.1222 9.88559 46.1275 9.73923C46.1347 9.52855 46.0685 9.32186 45.9401 9.15405C45.8117 8.98623 45.6289 8.86757 45.4227 8.81809L44.7721 8.61879C44.6986 8.59984 44.6329 8.55846 44.5842 8.50049C44.5356 8.44251 44.5065 8.37085 44.501 8.29558C44.501 8.06934 44.6799 7.94006 44.951 7.94006C45.1763 7.93753 45.3997 7.98156 45.607 8.06934C45.6586 8.09041 45.7139 8.10138 45.7697 8.10166C45.8531 8.10166 45.933 8.06874 45.992 8.01015C46.051 7.95156 46.0841 7.87209 46.0841 7.78923C46.0834 7.72161 46.0624 7.65574 46.0237 7.60008C45.9851 7.54441 45.9306 7.50148 45.8672 7.4768C45.5845 7.352 45.2763 7.29481 44.9673 7.30981C44.825 7.29573 44.6814 7.31076 44.5452 7.35396C44.4091 7.39717 44.2832 7.46763 44.1756 7.561C44.0679 7.65438 43.9806 7.76869 43.919 7.89688C43.8575 8.02508 43.8231 8.16443 43.8179 8.30635C43.8109 8.50515 43.8697 8.70073 43.9853 8.86319C44.1008 9.02564 44.2667 9.14603 44.4576 9.20594L44.9998 9.39986ZM40.6028 10.3102C40.5926 10.3545 40.5926 10.4006 40.6028 10.4449C40.6068 10.5322 40.6435 10.6149 40.7057 10.6767C40.7679 10.7385 40.8511 10.7749 40.939 10.7789C41.0082 10.7775 41.0756 10.7565 41.1333 10.7183C41.1909 10.6801 41.2364 10.6264 41.2643 10.5634L42.8908 6.49641C42.8978 6.4536 42.8978 6.40993 42.8908 6.36713C42.888 6.27798 42.8512 6.19322 42.7877 6.13016C42.7242 6.06709 42.6389 6.03047 42.5492 6.02776C42.4801 6.02976 42.4129 6.05103 42.3554 6.08913C42.2979 6.12723 42.2523 6.18063 42.2239 6.24323L40.6028 10.3102ZM37.6426 8.73729C37.6426 8.19862 37.8703 7.93467 38.2878 7.93467C38.7052 7.93467 38.9384 8.18785 38.9384 8.73729H37.6426ZM39.1878 9.36215C39.2445 9.36287 39.3007 9.35239 39.3533 9.33132C39.4059 9.31026 39.4538 9.27902 39.4941 9.23943C39.5345 9.19985 39.5665 9.15269 39.5884 9.10071C39.6102 9.04872 39.6215 8.99294 39.6215 8.9366V8.61879C39.6257 8.44398 39.5948 8.27009 39.5306 8.10729C39.4664 7.9445 39.3701 7.79608 39.2474 7.67072C39.1213 7.54714 38.9712 7.45043 38.8062 7.38652C38.6412 7.32261 38.4648 7.29284 38.2878 7.29903C38.1102 7.29457 37.9334 7.32512 37.7678 7.38892C37.6022 7.45271 37.4509 7.54849 37.3227 7.67072C37.2015 7.79661 37.1068 7.94537 37.0445 8.1082C36.9821 8.27104 36.9532 8.44466 36.9595 8.61879V9.44834C36.9484 9.62475 36.9752 9.80148 37.0379 9.96686C37.1007 10.1322 37.1981 10.2825 37.3236 10.4077C37.4492 10.533 37.6 10.6303 37.7662 10.6934C37.9324 10.7564 38.1102 10.7837 38.2878 10.7735C38.6363 10.7761 38.981 10.7006 39.2962 10.5526C39.3506 10.5249 39.3958 10.4822 39.4266 10.4297C39.4573 10.3772 39.4723 10.317 39.4697 10.2564C39.4656 10.173 39.4296 10.0943 39.3692 10.0362C39.3088 9.97819 39.2284 9.94519 39.1444 9.94392C39.0955 9.94367 39.0472 9.95473 39.0034 9.97624C38.7791 10.0814 38.5356 10.14 38.2878 10.1486C38.1907 10.1546 38.0937 10.1372 38.0049 10.0978C37.9162 10.0584 37.8384 9.99818 37.7781 9.92238C37.6744 9.7526 37.627 9.55476 37.6426 9.35677L39.1878 9.36215Z" fill="white"/>
<path d="M52.3407 17.1568C52.129 17.2159 51.91 17.2449 51.6901 17.243C51.6031 17.2523 51.515 17.2422 51.4325 17.2133C51.3499 17.1844 51.2749 17.1374 51.213 17.0759C51.1511 17.0144 51.1039 16.9399 51.0748 16.8579C51.0457 16.7759 51.0355 16.6884 51.0449 16.6019V15.6593C51.0365 15.573 51.0474 15.486 51.0769 15.4044C51.1063 15.3228 51.1536 15.2487 51.2152 15.1875C51.2769 15.1262 51.3515 15.0792 51.4336 15.05C51.5157 15.0207 51.6033 15.0099 51.6901 15.0182C51.9282 15.0189 52.1586 15.1028 52.3407 15.2552V17.1568ZM50.3618 16.5427C50.3548 16.7182 50.3839 16.8932 50.4473 17.0571C50.5107 17.221 50.607 17.3704 50.7304 17.4961C50.8573 17.6187 51.0075 17.7147 51.1724 17.7786C51.3372 17.8424 51.5132 17.8728 51.6901 17.8678C52.0443 17.868 52.3961 17.8098 52.731 17.6954C52.8164 17.6672 52.8905 17.6129 52.9431 17.5404C52.9956 17.4679 53.0239 17.3808 53.0238 17.2914V13.4669C53.0238 13.4218 53.0148 13.3773 52.9973 13.3357C52.9798 13.2942 52.9542 13.2565 52.9219 13.225C52.8896 13.1934 52.8513 13.1685 52.8092 13.1518C52.7671 13.135 52.7221 13.1268 52.6768 13.1275C52.6322 13.1275 52.5881 13.1363 52.5469 13.1534C52.5058 13.1705 52.4685 13.1956 52.4372 13.2272C52.4059 13.2588 52.3813 13.2962 52.3647 13.3374C52.3481 13.3785 52.34 13.4225 52.3407 13.4669V14.5442C52.1397 14.4387 51.9173 14.3798 51.6901 14.3718C51.5123 14.359 51.3339 14.3843 51.1669 14.4461C50.9998 14.5079 50.8482 14.6047 50.7222 14.7299C50.5961 14.8551 50.4987 15.0058 50.4365 15.1717C50.3744 15.3377 50.3489 15.515 50.3618 15.6916V16.5427ZM48.7353 17.5231C48.7353 17.6136 48.7711 17.7005 48.835 17.765C48.8989 17.8295 48.9858 17.8664 49.0768 17.8678C49.1224 17.8686 49.1676 17.8601 49.2097 17.843C49.2519 17.8259 49.2901 17.8004 49.322 17.7682C49.3539 17.7359 49.379 17.6976 49.3955 17.6555C49.4121 17.6133 49.4199 17.5683 49.4184 17.5231V14.7381C49.4199 14.6929 49.4121 14.6479 49.3955 14.6057C49.379 14.5636 49.3539 14.5253 49.322 14.493C49.2901 14.4608 49.2519 14.4353 49.2097 14.4182C49.1676 14.4011 49.1224 14.3926 49.0768 14.3934C48.9858 14.3948 48.8989 14.4317 48.835 14.4962C48.7711 14.5607 48.7353 14.6476 48.7353 14.7381V17.5231ZM49.4618 13.4938C49.4604 13.3933 49.4192 13.2974 49.3471 13.2268C49.2751 13.1563 49.178 13.1167 49.0768 13.1167C48.9747 13.1167 48.8768 13.157 48.8046 13.2287C48.7325 13.3005 48.6919 13.3977 48.6919 13.4992C48.6919 13.6006 48.7325 13.6979 48.8046 13.7696C48.8768 13.8413 48.9747 13.8816 49.0768 13.8816C49.1279 13.8816 49.1784 13.8716 49.2254 13.852C49.2725 13.8325 49.3152 13.8038 49.351 13.7677C49.3868 13.7316 49.415 13.6888 49.434 13.6418C49.4531 13.5948 49.4625 13.5445 49.4618 13.4938ZM46.2088 17.5231C46.2088 17.6131 46.2448 17.6994 46.3088 17.763C46.3729 17.8267 46.4598 17.8624 46.5503 17.8624C46.6409 17.8624 46.7278 17.8267 46.7919 17.763C46.8559 17.6994 46.8919 17.6131 46.8919 17.5231V15.3199C46.8933 15.2403 46.9257 15.1644 46.9824 15.1081C47.039 15.0518 47.1154 15.0196 47.1955 15.0182C47.3093 15.023 47.4221 15.0411 47.5317 15.0721C47.5675 15.0792 47.6043 15.0792 47.6401 15.0721C47.6828 15.0736 47.7253 15.0664 47.7651 15.051C47.8048 15.0356 47.841 15.0124 47.8715 14.9826C47.9019 14.9529 47.9259 14.9173 47.9421 14.8781C47.9582 14.8388 47.9662 14.7967 47.9654 14.7543C47.9654 14.6774 47.9383 14.603 47.8887 14.5439C47.8392 14.4849 47.7704 14.4449 47.6943 14.4311C47.5302 14.3969 47.3632 14.3789 47.1955 14.3772C47.0651 14.3743 46.9355 14.3976 46.8144 14.4458C46.6934 14.4941 46.5834 14.5662 46.4912 14.6578C46.399 14.7494 46.3264 14.8587 46.2779 14.979C46.2293 15.0992 46.2058 15.228 46.2088 15.3576V17.5231ZM44.4901 17.1568C44.2784 17.2159 44.0594 17.2449 43.8395 17.243C43.7527 17.2513 43.6651 17.2405 43.583 17.2112C43.5009 17.1819 43.4263 17.135 43.3647 17.0737C43.303 17.0124 43.2557 16.9384 43.2263 16.8568C43.1968 16.7752 43.1859 16.6882 43.1943 16.6019V15.6593C43.1859 15.573 43.1968 15.486 43.2263 15.4044C43.2557 15.3228 43.303 15.2487 43.3647 15.1875C43.4263 15.1262 43.5009 15.0792 43.583 15.05C43.6651 15.0207 43.7527 15.0099 43.8395 15.0182C44.0777 15.0189 44.308 15.1028 44.4901 15.2552V17.1568ZM42.5112 16.5427C42.5027 16.7185 42.5313 16.8941 42.595 17.0583C42.6586 17.2225 42.7561 17.3717 42.8811 17.4964C43.0061 17.6211 43.1559 17.7186 43.3209 17.7825C43.4859 17.8465 43.6626 17.8755 43.8395 17.8678C44.1937 17.868 44.5455 17.8098 44.8805 17.6954C44.9658 17.6672 45.04 17.6129 45.0925 17.5404C45.1451 17.4679 45.1733 17.3808 45.1732 17.2914V13.4669C45.1732 13.4218 45.1642 13.3773 45.1467 13.3357C45.1292 13.2942 45.1036 13.2565 45.0713 13.225C45.039 13.1934 45.0007 13.1685 44.9586 13.1518C44.9166 13.135 44.8716 13.1268 44.8263 13.1275C44.7817 13.1275 44.7375 13.1363 44.6964 13.1534C44.6552 13.1705 44.6179 13.1956 44.5866 13.2272C44.5553 13.2588 44.5307 13.2962 44.5141 13.3374C44.4976 13.3785 44.4894 13.4225 44.4901 13.4669V14.5442C44.2891 14.4387 44.0667 14.3798 43.8395 14.3718C43.662 14.3599 43.4839 14.3858 43.3173 14.448C43.1507 14.5101 42.9994 14.6069 42.8736 14.7319C42.7478 14.8569 42.6503 15.0072 42.5878 15.1727C42.5253 15.3383 42.4992 15.5152 42.5112 15.6916V16.5427ZM40.9389 17.1568C40.7151 17.2103 40.486 17.2392 40.2558 17.243C39.6811 17.243 39.6486 16.909 39.6486 16.7905C39.6486 16.672 39.6811 16.3703 40.2558 16.3703H40.9389V17.1568ZM41.6275 15.5138C41.6338 15.3631 41.6083 15.2128 41.5525 15.0726C41.4967 14.9323 41.4118 14.8053 41.3035 14.6997C41.1952 14.5941 41.0657 14.5122 40.9235 14.4595C40.7813 14.4067 40.6296 14.3842 40.4781 14.3934C40.0773 14.3691 39.6781 14.4608 39.3287 14.6573C39.2767 14.6884 39.2342 14.7328 39.2055 14.7859C39.1769 14.839 39.1632 14.8988 39.166 14.959C39.1674 14.9993 39.1768 15.039 39.1937 15.0757C39.2105 15.1124 39.2345 15.1455 39.2642 15.173C39.2939 15.2005 39.3288 15.2219 39.3668 15.2361C39.4049 15.2502 39.4453 15.2567 39.4859 15.2552C39.5533 15.2521 39.6186 15.2317 39.6757 15.196C39.8892 15.0627 40.1398 15.0005 40.3913 15.0182C40.4606 15.0114 40.5305 15.0192 40.5965 15.0411C40.6624 15.063 40.723 15.0985 40.7742 15.1453C40.8254 15.1921 40.8661 15.2491 40.8935 15.3126C40.921 15.3761 40.9346 15.4447 40.9335 15.5138V15.7454H40.2558C39.9161 15.7247 39.5806 15.8282 39.3124 16.0363C39.199 16.126 39.1084 16.2411 39.0481 16.3721C38.9878 16.5032 38.9595 16.6465 38.9654 16.7905C38.9606 16.939 38.9893 17.0867 39.0493 17.2227C39.1093 17.3588 39.1992 17.4798 39.3124 17.5769C39.5817 17.7829 39.9164 17.8861 40.2558 17.8678C40.6245 17.8718 40.9911 17.8135 41.3401 17.6954C41.426 17.6674 41.5009 17.6134 41.5544 17.5409C41.6078 17.4685 41.6372 17.3813 41.6383 17.2914L41.6275 15.5138ZM37.4528 17.5231C37.4513 17.5678 37.459 17.6124 37.4752 17.6542C37.4914 17.696 37.516 17.7341 37.5473 17.7662C37.5787 17.7984 37.6162 17.824 37.6577 17.8414C37.6993 17.8589 37.7439 17.8678 37.7889 17.8678C37.8347 17.8685 37.8802 17.8601 37.9226 17.8431C37.965 17.826 38.0036 17.8006 38.0359 17.7685C38.0683 17.7363 38.0938 17.698 38.111 17.6559C38.1282 17.6137 38.1367 17.5685 38.1359 17.5231V15.6215C38.1375 15.4571 38.1055 15.294 38.0419 15.1422C37.9783 14.9903 37.8843 14.8529 37.7658 14.7381C37.6472 14.6233 37.5065 14.5336 37.352 14.4743C37.1976 14.4151 37.0327 14.3875 36.8673 14.3934C36.5366 14.3907 36.2124 14.4843 35.9347 14.6627C35.708 14.481 35.4235 14.3855 35.1323 14.3934C34.7622 14.3878 34.3943 14.4518 34.048 14.5819C33.9674 14.6153 33.8984 14.6713 33.8493 14.7431C33.8002 14.8148 33.7732 14.8992 33.7715 14.9859V17.5231C33.7715 17.6131 33.8075 17.6994 33.8715 17.763C33.9356 17.8267 34.0225 17.8624 34.113 17.8624C34.2036 17.8624 34.2905 17.8267 34.3546 17.763C34.4186 17.6994 34.4546 17.6131 34.4546 17.5231V15.1098C34.6474 15.0485 34.8486 15.0176 35.051 15.0182C35.3438 15.0182 35.5932 15.1206 35.5932 15.503V17.5231C35.5871 17.5709 35.5913 17.6194 35.6055 17.6654C35.6198 17.7115 35.6437 17.754 35.6758 17.7901C35.7078 17.8263 35.7472 17.8552 35.7914 17.875C35.8356 17.8948 35.8835 17.9051 35.932 17.9051C35.9805 17.9051 36.0284 17.8948 36.0726 17.875C36.1168 17.8552 36.1562 17.8263 36.1883 17.7901C36.2203 17.754 36.2443 17.7115 36.2585 17.6654C36.2728 17.6194 36.277 17.5709 36.2709 17.5231V15.1906C36.4493 15.0783 36.6561 15.0185 36.8673 15.0182C37.013 15.0264 37.1502 15.0895 37.2509 15.1945C37.3516 15.2996 37.4083 15.4388 37.4094 15.5838L37.4528 17.5231Z" fill="white"/>
<path d="M145.539 23.5993C145.539 23.8207 145.451 24.0331 145.293 24.1897C145.135 24.3463 144.922 24.4343 144.699 24.4343C144.476 24.4343 144.262 24.3463 144.104 24.1897C143.947 24.0331 143.858 23.8207 143.858 23.5993V22.6243C143.858 22.4029 143.947 22.1905 144.104 22.0339C144.262 21.8773 144.476 21.7894 144.699 21.7894C144.922 21.7894 145.135 21.8773 145.293 22.0339C145.451 22.1905 145.539 22.4029 145.539 22.6243V23.5993ZM146 22.6512C146 22.3084 145.863 21.9795 145.619 21.7371C145.375 21.4946 145.044 21.3584 144.699 21.3584C144.354 21.3584 144.023 21.4946 143.779 21.7371C143.535 21.9795 143.398 22.3084 143.398 22.6512V23.5616C143.398 23.9045 143.535 24.2333 143.779 24.4758C144.023 24.7182 144.354 24.8544 144.699 24.8544C145.044 24.8544 145.375 24.7182 145.619 24.4758C145.863 24.2333 146 23.9045 146 23.5616V22.6512ZM141.858 20.3565C141.89 20.3189 141.907 20.2711 141.907 20.2218C141.907 20.1647 141.884 20.1099 141.843 20.0695C141.802 20.0291 141.747 20.0064 141.69 20.0064C141.655 20.0065 141.622 20.015 141.592 20.0309C141.561 20.0469 141.536 20.0699 141.516 20.0979C141.447 20.1679 141.354 20.2101 141.256 20.2164C141.194 20.213 141.134 20.1925 141.082 20.1572C140.947 20.0666 140.79 20.0145 140.627 20.0064C140.511 20.0036 140.396 20.028 140.292 20.0776C140.187 20.1272 140.096 20.2006 140.025 20.2918C139.993 20.3316 139.976 20.381 139.976 20.4319C139.976 20.4604 139.981 20.4888 139.991 20.5152C140.002 20.5417 140.018 20.5658 140.038 20.5859C140.059 20.6061 140.083 20.6219 140.109 20.6325C140.136 20.643 140.165 20.6481 140.193 20.6474C140.227 20.6466 140.26 20.6385 140.29 20.6236C140.32 20.6087 140.346 20.5874 140.367 20.5612C140.398 20.5229 140.438 20.492 140.483 20.4706C140.528 20.4492 140.577 20.4378 140.627 20.4373C140.69 20.44 140.751 20.4626 140.801 20.5019C140.935 20.5941 141.093 20.6447 141.256 20.6474C141.372 20.6486 141.487 20.623 141.591 20.5725C141.696 20.522 141.787 20.4481 141.858 20.3565ZM141.738 24.6336C141.738 24.6936 141.762 24.7511 141.805 24.7935C141.848 24.836 141.906 24.8598 141.966 24.8598C141.997 24.8605 142.027 24.8552 142.055 24.8442C142.083 24.8331 142.109 24.8166 142.131 24.7955C142.152 24.7744 142.17 24.7492 142.182 24.7214C142.193 24.6936 142.199 24.6637 142.199 24.6336V22.5866C142.209 22.4226 142.183 22.2585 142.124 22.105C142.066 21.9515 141.975 21.812 141.858 21.6956C141.742 21.5792 141.602 21.4886 141.448 21.4295C141.293 21.3705 141.128 21.3444 140.963 21.353C140.614 21.3493 140.267 21.4077 139.938 21.5254C139.877 21.5467 139.823 21.5868 139.785 21.6399C139.747 21.693 139.727 21.7566 139.727 21.8217V24.6336C139.727 24.6633 139.733 24.6927 139.744 24.7201C139.756 24.7476 139.773 24.7725 139.794 24.7935C139.815 24.8145 139.84 24.8312 139.868 24.8426C139.895 24.854 139.925 24.8598 139.955 24.8598C139.985 24.8598 140.014 24.854 140.042 24.8426C140.07 24.8312 140.095 24.8145 140.116 24.7935C140.137 24.7725 140.154 24.7476 140.165 24.7201C140.177 24.6927 140.182 24.6633 140.182 24.6336V21.8917C140.436 21.818 140.699 21.7799 140.963 21.7786C141.068 21.7694 141.173 21.7832 141.272 21.8191C141.37 21.8549 141.46 21.9118 141.534 21.9859C141.608 22.0599 141.665 22.1492 141.7 22.2474C141.735 22.3457 141.748 22.4504 141.738 22.5543V24.6336ZM138.025 22.829H136.474V22.5543C136.474 22.35 136.556 22.1541 136.701 22.0096C136.847 21.8651 137.044 21.784 137.249 21.784C137.455 21.784 137.652 21.8651 137.798 22.0096C137.943 22.1541 138.025 22.35 138.025 22.5543V22.829ZM138.171 23.2546C138.213 23.2546 138.255 23.2463 138.293 23.2304C138.332 23.2144 138.368 23.191 138.397 23.1615C138.427 23.132 138.451 23.0969 138.467 23.0584C138.483 23.0198 138.491 22.9785 138.491 22.9367V22.5866C138.502 22.4181 138.478 22.2491 138.421 22.0901C138.364 21.9311 138.275 21.7854 138.159 21.6622C138.042 21.5389 137.902 21.4406 137.746 21.3734C137.59 21.3062 137.422 21.2716 137.252 21.2716C137.082 21.2716 136.914 21.3062 136.758 21.3734C136.602 21.4406 136.462 21.5389 136.346 21.6622C136.229 21.7854 136.14 21.9311 136.083 22.0901C136.026 22.2491 136.002 22.4181 136.013 22.5866V23.6316C136.004 23.7958 136.029 23.9602 136.088 24.1139C136.148 24.2675 136.239 24.407 136.356 24.523C136.473 24.6391 136.614 24.7291 136.769 24.7872C136.924 24.8452 137.09 24.87 137.255 24.8598C137.591 24.8636 137.923 24.7899 138.225 24.6443C138.264 24.6272 138.296 24.5991 138.318 24.5636C138.34 24.5281 138.351 24.4868 138.35 24.445C138.35 24.4158 138.344 24.3869 138.332 24.36C138.321 24.3331 138.304 24.3089 138.283 24.2887C138.261 24.2686 138.236 24.2529 138.209 24.2428C138.181 24.2326 138.152 24.2281 138.122 24.2296C138.09 24.2216 138.057 24.2216 138.025 24.2296C137.784 24.3456 137.522 24.4098 137.255 24.4181C137.148 24.424 137.041 24.4069 136.941 24.368C136.842 24.329 136.752 24.2691 136.678 24.1923C136.603 24.1156 136.547 24.0238 136.512 23.9233C136.477 23.8228 136.464 23.716 136.474 23.6101V23.233L138.171 23.2546ZM134.056 23.3892C134.178 23.4166 134.287 23.4852 134.364 23.5834C134.441 23.6817 134.482 23.8034 134.479 23.9279C134.474 24.0007 134.455 24.0718 134.422 24.1369C134.388 24.2019 134.342 24.2596 134.286 24.3065C134.23 24.3533 134.164 24.3883 134.094 24.4094C134.024 24.4304 133.95 24.437 133.877 24.4289C133.625 24.4242 133.377 24.3653 133.151 24.2565C133.12 24.2517 133.089 24.2517 133.058 24.2565C133.006 24.2528 132.953 24.2681 132.91 24.2995C132.868 24.3309 132.838 24.3764 132.826 24.4277C132.814 24.4791 132.822 24.533 132.846 24.5796C132.871 24.6262 132.912 24.6626 132.961 24.682C133.24 24.8147 133.546 24.8811 133.855 24.876C133.993 24.884 134.13 24.8644 134.26 24.8185C134.389 24.7727 134.508 24.7013 134.609 24.6089C134.71 24.5164 134.792 24.4046 134.849 24.2802C134.905 24.1558 134.936 24.0214 134.94 23.8848C134.934 23.6837 134.866 23.4893 134.744 23.3283C134.623 23.1672 134.455 23.0474 134.262 22.9852L133.628 22.732C133.529 22.6993 133.442 22.6365 133.381 22.5524C133.32 22.4683 133.286 22.3672 133.286 22.2634C133.286 21.924 133.606 21.7947 133.866 21.7947C134.111 21.7925 134.354 21.844 134.576 21.9456H134.663C134.692 21.9478 134.722 21.944 134.749 21.9345C134.777 21.9249 134.802 21.9098 134.823 21.8901C134.845 21.8703 134.862 21.8464 134.873 21.8198C134.885 21.7932 134.891 21.7645 134.891 21.7355C134.891 21.6905 134.878 21.6465 134.853 21.6091C134.828 21.5717 134.792 21.5425 134.75 21.5254C134.491 21.4091 134.21 21.3502 133.926 21.353C133.794 21.3405 133.661 21.3544 133.534 21.394C133.407 21.4335 133.29 21.4979 133.189 21.5832C133.088 21.6686 133.005 21.7733 132.945 21.891C132.886 22.0088 132.85 22.1372 132.842 22.2688C132.834 22.4558 132.887 22.6402 132.994 22.7946C133.1 22.949 133.254 23.065 133.433 23.1253L134.056 23.3892ZM131.345 20.6204C131.426 20.619 131.503 20.5861 131.56 20.5286C131.617 20.4712 131.649 20.3939 131.649 20.3134C131.649 20.2334 131.617 20.1567 131.56 20.1001C131.503 20.0435 131.426 20.0117 131.345 20.0117C131.265 20.0117 131.187 20.0435 131.13 20.1001C131.074 20.1567 131.042 20.2334 131.042 20.3134C131.042 20.3939 131.073 20.4712 131.13 20.5286C131.187 20.5861 131.264 20.619 131.345 20.6204ZM131.112 24.6336C131.112 24.695 131.137 24.7539 131.18 24.7973C131.224 24.8408 131.283 24.8652 131.345 24.8652C131.407 24.8652 131.466 24.8408 131.51 24.7973C131.554 24.7539 131.578 24.695 131.578 24.6336V21.5847C131.578 21.5232 131.554 21.4643 131.51 21.4209C131.466 21.3774 131.407 21.353 131.345 21.353C131.283 21.353 131.224 21.3774 131.18 21.4209C131.137 21.4643 131.112 21.5232 131.112 21.5847V24.6336ZM127.658 22.5543C127.648 22.4507 127.66 22.346 127.695 22.2478C127.729 22.1495 127.786 22.0601 127.859 21.986C127.933 21.9118 128.022 21.8548 128.12 21.8189C128.219 21.7831 128.324 21.7693 128.428 21.7786C128.714 21.7659 128.993 21.8623 129.209 22.0479V24.3211C128.956 24.3993 128.693 24.4392 128.428 24.4396C128.324 24.4489 128.219 24.4352 128.12 24.3993C128.022 24.3635 127.933 24.3064 127.859 24.2323C127.786 24.1581 127.729 24.0687 127.695 23.9705C127.66 23.8722 127.648 23.7675 127.658 23.6639V22.5543ZM128.428 24.8598C128.777 24.8596 129.123 24.8032 129.453 24.6928C129.516 24.6731 129.572 24.6337 129.611 24.5803C129.65 24.527 129.671 24.4625 129.67 24.3965V20.238C129.675 20.205 129.673 20.1713 129.664 20.1391C129.654 20.107 129.638 20.0773 129.616 20.0519C129.595 20.0266 129.567 20.0062 129.537 19.9923C129.506 19.9784 129.473 19.9711 129.439 19.9711C129.406 19.9711 129.373 19.9784 129.342 19.9923C129.312 20.0062 129.284 20.0266 129.263 20.0519C129.241 20.0773 129.225 20.107 129.215 20.1391C129.206 20.1713 129.204 20.205 129.209 20.238V21.547C128.97 21.4146 128.702 21.3442 128.428 21.3423C128.263 21.3309 128.097 21.3552 127.942 21.4133C127.786 21.4714 127.646 21.5621 127.529 21.6792C127.412 21.7962 127.322 21.9369 127.265 22.0916C127.208 22.2464 127.185 22.4115 127.198 22.5758V23.6209C127.187 23.7843 127.212 23.9481 127.27 24.1014C127.328 24.2546 127.419 24.3939 127.535 24.5099C127.651 24.626 127.791 24.7163 127.945 24.7747C128.099 24.8332 128.264 24.8585 128.428 24.849M123.684 22.8182H122.134V22.5435C122.134 22.3392 122.215 22.1433 122.361 21.9988C122.506 21.8544 122.703 21.7732 122.909 21.7732C123.115 21.7732 123.312 21.8544 123.457 21.9988C123.603 22.1433 123.684 22.3392 123.684 22.5435V22.8182ZM123.825 23.2438C123.868 23.2445 123.909 23.2368 123.949 23.2211C123.988 23.2054 124.023 23.182 124.053 23.1523C124.083 23.1227 124.107 23.0873 124.122 23.0484C124.138 23.0096 124.146 22.9679 124.145 22.926V22.5758C124.145 22.2501 124.015 21.9377 123.783 21.7074C123.551 21.477 123.237 21.3477 122.909 21.3477C122.581 21.3477 122.267 21.477 122.035 21.7074C121.803 21.9377 121.673 22.2501 121.673 22.5758V23.6209C121.663 23.7851 121.689 23.9494 121.748 24.1031C121.807 24.2567 121.898 24.3962 122.016 24.5123C122.133 24.6283 122.274 24.7183 122.429 24.7764C122.584 24.8344 122.749 24.8592 122.914 24.849C123.25 24.8529 123.583 24.7791 123.885 24.6336C123.922 24.6153 123.954 24.587 123.976 24.5517C123.998 24.5165 124.01 24.4758 124.01 24.4343C124.009 24.4052 124.003 24.3767 123.991 24.3501C123.979 24.3236 123.962 24.2997 123.941 24.2796C123.92 24.2596 123.895 24.244 123.867 24.2335C123.84 24.2231 123.811 24.2181 123.782 24.2188C123.75 24.2108 123.716 24.2108 123.684 24.2188C123.444 24.3348 123.182 24.399 122.914 24.4073C122.808 24.4133 122.701 24.3961 122.601 24.3572C122.501 24.3182 122.411 24.2583 122.337 24.1816C122.263 24.1048 122.207 24.013 122.171 23.9125C122.136 23.8121 122.123 23.7052 122.134 23.5993V23.2222L123.825 23.2438ZM118.404 22.5435C118.393 22.4399 118.405 22.3353 118.44 22.237C118.475 22.1387 118.531 22.0493 118.604 21.9752C118.678 21.901 118.767 21.844 118.866 21.8081C118.964 21.7723 119.069 21.7585 119.174 21.7678C119.459 21.7551 119.738 21.8515 119.954 22.0372V24.3104C119.701 24.3885 119.438 24.4285 119.174 24.4289C119.069 24.4382 118.964 24.4244 118.866 24.3885C118.767 24.3527 118.678 24.2956 118.604 24.2215C118.531 24.1474 118.475 24.0579 118.44 23.9597C118.405 23.8614 118.393 23.7568 118.404 23.6532V22.5435ZM119.174 24.849C119.522 24.8492 119.868 24.7928 120.198 24.682C120.262 24.6624 120.317 24.6229 120.356 24.5696C120.395 24.5162 120.416 24.4518 120.415 24.3858V20.238C120.42 20.205 120.418 20.1713 120.409 20.1391C120.4 20.107 120.383 20.0773 120.362 20.0519C120.34 20.0266 120.313 20.0062 120.282 19.9923C120.251 19.9784 120.218 19.9711 120.185 19.9711C120.151 19.9711 120.118 19.9784 120.087 19.9923C120.057 20.0062 120.03 20.0266 120.008 20.0519C119.986 20.0773 119.97 20.107 119.961 20.1391C119.951 20.1713 119.949 20.205 119.954 20.238V21.547C119.715 21.4146 119.447 21.3442 119.174 21.3423C119.008 21.3318 118.843 21.3567 118.688 21.4151C118.533 21.4736 118.393 21.5643 118.276 21.6812C118.159 21.798 118.069 21.9383 118.012 22.0926C117.954 22.247 117.931 22.4117 117.943 22.5758V23.6209C117.933 23.7843 117.957 23.9481 118.015 24.1014C118.074 24.2546 118.164 24.3939 118.28 24.5099C118.396 24.626 118.536 24.7163 118.69 24.7747C118.844 24.8332 119.009 24.8585 119.174 24.849ZM113.573 24.6228C113.573 24.6828 113.597 24.7403 113.64 24.7828C113.682 24.8252 113.74 24.849 113.801 24.849C113.831 24.8498 113.861 24.8444 113.889 24.8334C113.918 24.8223 113.943 24.8058 113.965 24.7847C113.987 24.7636 114.004 24.7384 114.016 24.7106C114.028 24.6828 114.034 24.653 114.034 24.6228V22.2526C114.028 22.1932 114.034 22.1332 114.053 22.0765C114.072 22.0198 114.102 21.9676 114.143 21.9234C114.183 21.8792 114.233 21.844 114.288 21.82C114.343 21.7959 114.402 21.7837 114.462 21.784C114.57 21.7838 114.677 21.7946 114.782 21.8163H114.901C114.93 21.8177 114.959 21.8134 114.986 21.8036C115.014 21.7937 115.039 21.7786 115.06 21.759C115.081 21.7394 115.098 21.7158 115.11 21.6896C115.122 21.6633 115.128 21.635 115.129 21.6062C115.128 21.5535 115.109 21.5026 115.076 21.4617C115.042 21.4207 114.996 21.3919 114.945 21.38C114.786 21.3464 114.624 21.3284 114.462 21.3261C114.341 21.3251 114.221 21.349 114.109 21.3961C113.998 21.4432 113.897 21.5126 113.814 21.6C113.73 21.6874 113.666 21.791 113.624 21.9042C113.583 22.0174 113.566 22.1378 113.573 22.258V24.6228ZM111.876 23.5885C111.876 23.81 111.787 24.0223 111.63 24.1789C111.472 24.3355 111.258 24.4235 111.036 24.4235C110.813 24.4235 110.599 24.3355 110.441 24.1789C110.284 24.0223 110.195 23.81 110.195 23.5885V22.6243C110.195 22.4029 110.284 22.1905 110.441 22.0339C110.599 21.8773 110.813 21.7894 111.036 21.7894C111.258 21.7894 111.472 21.8773 111.63 22.0339C111.787 22.1905 111.876 22.4029 111.876 22.6243V23.5885ZM112.331 22.6405C112.343 22.464 112.318 22.2871 112.258 22.1207C112.198 21.9543 112.104 21.8019 111.982 21.6729C111.861 21.5439 111.713 21.4411 111.55 21.3708C111.387 21.3005 111.211 21.2642 111.033 21.2642C110.855 21.2642 110.679 21.3005 110.516 21.3708C110.352 21.4411 110.205 21.5439 110.084 21.6729C109.962 21.8019 109.868 21.9543 109.808 22.1207C109.748 22.2871 109.723 22.464 109.734 22.6405V23.5508C109.723 23.7273 109.748 23.9042 109.808 24.0706C109.868 24.237 109.962 24.3894 110.084 24.5184C110.205 24.6474 110.352 24.7502 110.516 24.8205C110.679 24.8908 110.855 24.9271 111.033 24.9271C111.211 24.9271 111.387 24.8908 111.55 24.8205C111.713 24.7502 111.861 24.6474 111.982 24.5184C112.104 24.3894 112.198 24.237 112.258 24.0706C112.318 23.9042 112.343 23.7273 112.331 23.5508V22.6405ZM108.189 20.6097C108.27 20.6083 108.347 20.5753 108.404 20.5179C108.461 20.4604 108.493 20.3831 108.493 20.3026C108.493 20.2226 108.461 20.1459 108.404 20.0893C108.347 20.0327 108.27 20.001 108.189 20.001C108.109 20.001 108.031 20.0327 107.975 20.0893C107.918 20.1459 107.886 20.2226 107.886 20.3026C107.886 20.3831 107.917 20.4604 107.974 20.5179C108.031 20.5753 108.108 20.6083 108.189 20.6097ZM107.962 24.6228C107.97 24.6775 107.998 24.7273 108.04 24.7634C108.082 24.7994 108.136 24.8192 108.192 24.8192C108.248 24.8192 108.301 24.7994 108.344 24.7634C108.386 24.7273 108.414 24.6775 108.422 24.6228V21.5847C108.427 21.5517 108.425 21.5179 108.416 21.4858C108.407 21.4537 108.391 21.424 108.369 21.3986C108.347 21.3733 108.32 21.3529 108.289 21.339C108.259 21.325 108.226 21.3178 108.192 21.3178C108.158 21.3178 108.125 21.325 108.095 21.339C108.064 21.3529 108.037 21.3733 108.015 21.3986C107.993 21.424 107.977 21.4537 107.968 21.4858C107.959 21.5179 107.956 21.5517 107.962 21.5847V24.6228ZM105.327 24.6228C105.327 24.653 105.333 24.6828 105.344 24.7106C105.356 24.7384 105.373 24.7636 105.395 24.7847C105.417 24.8058 105.443 24.8223 105.471 24.8334C105.499 24.8444 105.529 24.8498 105.56 24.849C105.62 24.849 105.678 24.8252 105.721 24.7828C105.763 24.7403 105.787 24.6828 105.787 24.6228V22.2526C105.781 22.1932 105.788 22.1332 105.807 22.0765C105.825 22.0198 105.856 21.9676 105.896 21.9234C105.937 21.8792 105.986 21.844 106.041 21.82C106.096 21.7959 106.156 21.7837 106.216 21.784C106.325 21.7839 106.434 21.7947 106.541 21.8163H106.655C106.684 21.8177 106.713 21.8135 106.741 21.8037C106.768 21.7939 106.794 21.7788 106.815 21.7593C106.837 21.7398 106.855 21.7162 106.867 21.69C106.88 21.6637 106.887 21.6352 106.888 21.6062C106.887 21.5535 106.868 21.5026 106.835 21.4617C106.802 21.4207 106.755 21.3919 106.704 21.38C106.543 21.3461 106.38 21.328 106.216 21.3261C106.095 21.3251 105.974 21.349 105.863 21.3961C105.751 21.4432 105.651 21.5126 105.567 21.6C105.484 21.6874 105.42 21.791 105.378 21.9042C105.337 22.0174 105.319 22.1378 105.327 22.258V24.6228ZM103.63 22.8182H102.079V22.5435C102.079 22.3392 102.161 22.1433 102.306 21.9988C102.451 21.8544 102.649 21.7732 102.854 21.7732C103.06 21.7732 103.257 21.8544 103.403 21.9988C103.548 22.1433 103.63 22.3392 103.63 22.5435V22.8182ZM103.771 23.2438C103.813 23.2445 103.855 23.2368 103.894 23.2211C103.933 23.2054 103.969 23.182 103.998 23.1523C104.028 23.1227 104.052 23.0873 104.068 23.0484C104.083 23.0096 104.091 22.9679 104.09 22.926V22.5758C104.09 22.2501 103.96 21.9377 103.728 21.7074C103.497 21.477 103.182 21.3477 102.854 21.3477C102.526 21.3477 102.212 21.477 101.98 21.7074C101.748 21.9377 101.618 22.2501 101.618 22.5758V23.6209C101.609 23.7851 101.634 23.9494 101.693 24.1031C101.753 24.2567 101.844 24.3962 101.961 24.5123C102.078 24.6283 102.219 24.7183 102.374 24.7764C102.529 24.8344 102.694 24.8592 102.86 24.849C103.194 24.8534 103.525 24.7796 103.825 24.6336C103.864 24.6173 103.898 24.5895 103.921 24.5539C103.944 24.5184 103.956 24.4766 103.955 24.4343C103.955 24.405 103.949 24.3761 103.937 24.3492C103.926 24.3224 103.909 24.2981 103.888 24.278C103.866 24.2578 103.841 24.2422 103.814 24.232C103.786 24.2218 103.757 24.2173 103.727 24.2188C103.695 24.2108 103.662 24.2108 103.63 24.2188C103.389 24.3348 103.127 24.399 102.86 24.4073C102.753 24.4133 102.646 24.3961 102.546 24.3572C102.447 24.3182 102.357 24.2583 102.283 24.1816C102.208 24.1048 102.152 24.013 102.117 23.9125C102.082 23.8121 102.069 23.7052 102.079 23.5993V23.2222L103.771 23.2438ZM100.024 23.6532C100.034 23.757 100.021 23.8618 99.9856 23.96C99.9503 24.0583 99.8936 24.1476 99.8196 24.2216C99.7456 24.2956 99.6561 24.3526 99.5575 24.3884C99.4589 24.4242 99.3535 24.438 99.2489 24.4289C98.9637 24.4405 98.6848 24.3442 98.4682 24.1595V21.8917C98.722 21.8187 98.9847 21.7807 99.2489 21.7786C99.3535 21.7694 99.4589 21.7832 99.5575 21.8191C99.6561 21.8549 99.7456 21.9118 99.8196 21.9859C99.8936 22.0599 99.9503 22.1492 99.9856 22.2474C100.021 22.3457 100.034 22.4504 100.024 22.5543V23.6532ZM98.0128 26.0557C98.0128 26.1157 98.0368 26.1732 98.0795 26.2156C98.1222 26.2581 98.1801 26.2819 98.2405 26.2819C98.3009 26.2819 98.3588 26.2581 98.4015 26.2156C98.4442 26.1732 98.4682 26.1157 98.4682 26.0557V24.6605C98.7075 24.791 98.976 24.8595 99.2489 24.8598C99.4137 24.8692 99.5787 24.8438 99.7329 24.7854C99.8872 24.727 100.027 24.6369 100.144 24.5209C100.261 24.4049 100.351 24.2658 100.41 24.1125C100.469 23.9592 100.494 23.7954 100.485 23.6316V22.5866C100.494 22.4226 100.469 22.2585 100.41 22.105C100.351 21.9515 100.261 21.812 100.144 21.6956C100.028 21.5792 99.8875 21.4886 99.7333 21.4295C99.579 21.3705 99.414 21.3444 99.2489 21.353C98.9016 21.3502 98.5565 21.4086 98.2296 21.5254C98.1667 21.5458 98.1119 21.5855 98.0729 21.6387C98.034 21.6919 98.0129 21.7559 98.0128 21.8217V26.0557ZM96.1803 24.3104C95.9291 24.3877 95.6679 24.4276 95.405 24.4289C95.2999 24.4389 95.194 24.4257 95.0947 24.3902C94.9954 24.3548 94.9052 24.298 94.8306 24.2239C94.756 24.1497 94.6988 24.0601 94.6631 23.9615C94.6274 23.8628 94.6142 23.7575 94.6242 23.6532V21.5847C94.625 21.5545 94.6196 21.5245 94.6085 21.4964C94.5974 21.4684 94.5807 21.4428 94.5595 21.4212C94.5383 21.3996 94.5129 21.3825 94.4849 21.3708C94.457 21.3591 94.4269 21.353 94.3965 21.353C94.3347 21.353 94.2754 21.3774 94.2317 21.4209C94.188 21.4643 94.1634 21.5232 94.1634 21.5847V23.6316C94.1509 23.798 94.175 23.965 94.2341 24.1211C94.2932 24.2773 94.3858 24.4187 94.5055 24.5356C94.6253 24.6526 94.7692 24.7421 94.9274 24.7981C95.0855 24.8541 95.254 24.8751 95.4212 24.8598C95.7696 24.859 96.1156 24.8026 96.4459 24.6928C96.5068 24.6706 96.5593 24.6302 96.5962 24.5771C96.6331 24.5241 96.6526 24.461 96.6519 24.3965V21.5847C96.6519 21.5247 96.6279 21.4671 96.5852 21.4247C96.5425 21.3823 96.4846 21.3584 96.4242 21.3584C96.3638 21.3584 96.3059 21.3823 96.2632 21.4247C96.2205 21.4671 96.1965 21.5247 96.1965 21.5847L96.1803 24.3104ZM92.1032 23.3785C92.2255 23.4058 92.3344 23.4744 92.4116 23.5727C92.4887 23.6709 92.5291 23.7926 92.5261 23.9171C92.5214 23.9899 92.5019 24.061 92.4687 24.1261C92.4356 24.1912 92.3894 24.2489 92.3332 24.2957C92.2769 24.3426 92.2116 24.3776 92.1414 24.3986C92.0711 24.4196 91.9972 24.4263 91.9242 24.4181C91.6741 24.4133 91.4281 24.3545 91.2032 24.2457C91.1708 24.2415 91.138 24.2415 91.1056 24.2457C91.0759 24.2443 91.0463 24.2487 91.0184 24.2588C90.9906 24.269 90.965 24.2845 90.9433 24.3046C90.9215 24.3247 90.9041 24.3489 90.8919 24.3758C90.8798 24.4027 90.8731 24.4317 90.8724 24.4612C90.8707 24.5065 90.8834 24.5512 90.9087 24.5889C90.934 24.6266 90.9707 24.6554 91.0134 24.6713C91.2922 24.8045 91.5986 24.8709 91.908 24.8652C92.0452 24.8732 92.1827 24.8537 92.3122 24.8078C92.4417 24.7619 92.5605 24.6906 92.6617 24.5981C92.7629 24.5056 92.8443 24.3938 92.9011 24.2695C92.9579 24.1451 92.9889 24.0106 92.9923 23.874C92.9862 23.6723 92.9172 23.4774 92.7948 23.3162C92.6724 23.1551 92.5028 23.0357 92.3092 22.9744L91.6748 22.7213C91.5761 22.6878 91.4903 22.6248 91.4291 22.5409C91.3679 22.457 91.3344 22.3562 91.3333 22.2526C91.3333 21.9133 91.6532 21.784 91.9188 21.784C92.1622 21.7812 92.403 21.8328 92.6236 21.9348H92.7104C92.7398 21.937 92.7693 21.9332 92.7971 21.9237C92.825 21.9142 92.8506 21.8992 92.8724 21.8795C92.8942 21.8599 92.9118 21.836 92.924 21.8094C92.9362 21.7828 92.9429 21.754 92.9435 21.7247C92.9437 21.6798 92.9304 21.6357 92.9053 21.5983C92.8802 21.5609 92.8444 21.5318 92.8026 21.5146C92.5417 21.3988 92.2588 21.34 91.973 21.3423C91.841 21.3297 91.7077 21.3436 91.5811 21.3832C91.4545 21.4227 91.3372 21.4871 91.2361 21.5725C91.135 21.6579 91.0522 21.7625 90.9925 21.8803C90.9328 21.998 90.8975 22.1265 90.8887 22.258C90.8819 22.4448 90.9356 22.6289 91.042 22.7831C91.1484 22.9373 91.3018 23.0535 91.4797 23.1145L92.1032 23.3785ZM87.2887 24.3211C87.0377 24.3988 86.7764 24.4388 86.5134 24.4396C85.8249 24.4396 85.7327 24.0949 85.7327 23.8256C85.7327 23.5562 85.8249 23.233 86.5134 23.233H87.2887V24.3211ZM87.7496 22.3765C87.7477 22.2295 87.7145 22.0846 87.6524 21.9511C87.5903 21.8177 87.5005 21.6988 87.3889 21.6022C87.2774 21.5056 87.1466 21.4335 87.005 21.3906C86.8635 21.3476 86.7145 21.3348 86.5676 21.353C86.2147 21.3492 85.8676 21.4424 85.5646 21.6224C85.5305 21.6449 85.5023 21.6752 85.4825 21.7109C85.4627 21.7465 85.4518 21.7864 85.4508 21.8271C85.4507 21.8568 85.4568 21.8862 85.4687 21.9134C85.4806 21.9407 85.498 21.9652 85.5199 21.9854C85.5418 22.0057 85.5677 22.0212 85.5959 22.031C85.6241 22.0408 85.6541 22.0448 85.6839 22.0425C85.7204 22.0401 85.7557 22.029 85.7869 22.0102C86.0211 21.8638 86.291 21.7837 86.5676 21.7786C86.996 21.7786 87.2887 21.9887 87.2887 22.3819V22.8075H86.5134C86.1764 22.7796 85.8408 22.8754 85.5701 23.0768C85.3746 23.2777 85.2654 23.5462 85.2654 23.8256C85.2654 24.1049 85.3746 24.3734 85.5701 24.5743C85.8397 24.7792 86.1746 24.8806 86.5134 24.8598C86.86 24.8584 87.2041 24.8021 87.5327 24.6928C87.5956 24.6724 87.6505 24.6328 87.6894 24.5796C87.7284 24.5264 87.7494 24.4623 87.7496 24.3965V22.3765ZM83.6128 24.6336C83.6128 24.6936 83.6368 24.7511 83.6795 24.7935C83.7222 24.836 83.7802 24.8598 83.8405 24.8598C83.8709 24.8605 83.9011 24.8552 83.9294 24.8442C83.9576 24.8331 83.9834 24.8166 84.0051 24.7955C84.0268 24.7744 84.0441 24.7492 84.0558 24.7214C84.0676 24.6936 84.0737 24.6637 84.0737 24.6336V20.238C84.0737 20.1765 84.0491 20.1176 84.0054 20.0742C83.9617 20.0308 83.9024 20.0064 83.8405 20.0064C83.8102 20.0063 83.7801 20.0124 83.7521 20.0241C83.7241 20.0358 83.6988 20.0529 83.6776 20.0745C83.6564 20.0961 83.6397 20.1217 83.6286 20.1497C83.6175 20.1778 83.6121 20.2078 83.6128 20.238V24.6336ZM81.8671 22.829H80.3165V22.5543C80.3165 22.35 80.3981 22.1541 80.5435 22.0096C80.6889 21.8651 80.8861 21.784 81.0918 21.784C81.2974 21.784 81.4946 21.8651 81.64 22.0096C81.7854 22.1541 81.8671 22.35 81.8671 22.5543V22.829ZM82.008 23.2546C82.0502 23.2553 82.0922 23.2476 82.1313 23.2319C82.1704 23.2161 82.206 23.1928 82.2358 23.1631C82.2657 23.1334 82.2892 23.0981 82.305 23.0592C82.3209 23.0203 82.3286 22.9787 82.3279 22.9367V22.5866C82.3279 22.2609 82.1977 21.9485 81.9658 21.7181C81.734 21.4878 81.4196 21.3584 81.0918 21.3584C80.7639 21.3584 80.4495 21.4878 80.2177 21.7181C79.9859 21.9485 79.8556 22.2609 79.8556 22.5866V23.6316C79.8461 23.7958 79.8717 23.9602 79.9309 24.1139C79.99 24.2675 80.0812 24.407 80.1985 24.523C80.3158 24.6391 80.4566 24.7291 80.6115 24.7872C80.7664 24.8452 80.9319 24.87 81.0972 24.8598C81.4331 24.8636 81.7653 24.7899 82.0677 24.6443C82.1052 24.6261 82.1368 24.5977 82.1589 24.5625C82.1809 24.5272 82.1925 24.4865 82.1924 24.445C82.1917 24.416 82.1852 24.3874 82.1734 24.3609C82.1616 24.3344 82.1446 24.3104 82.1234 24.2904C82.1023 24.2704 82.0774 24.2547 82.0501 24.2443C82.0229 24.2338 81.9938 24.2288 81.9646 24.2296C81.9325 24.2225 81.8992 24.2225 81.8671 24.2296C81.6267 24.3456 81.3643 24.4098 81.0972 24.4181C80.9903 24.424 80.8833 24.4069 80.7837 24.368C80.6841 24.329 80.5941 24.2691 80.52 24.1923C80.4458 24.1156 80.3892 24.0238 80.3541 23.9233C80.319 23.8228 80.3061 23.716 80.3165 23.6101V23.233L82.008 23.2546ZM78.1586 24.3319C77.9076 24.4096 77.6463 24.4496 77.3833 24.4504C77.2787 24.4596 77.1734 24.4458 77.0748 24.4099C76.9762 24.3741 76.8867 24.3172 76.8127 24.2431C76.7387 24.1691 76.682 24.0798 76.6466 23.9816C76.6113 23.8833 76.5981 23.7786 76.608 23.6747V21.5847C76.6132 21.5517 76.611 21.5179 76.6018 21.4858C76.5926 21.4537 76.5765 21.424 76.5546 21.3986C76.5327 21.3733 76.5055 21.3529 76.475 21.339C76.4445 21.325 76.4112 21.3178 76.3776 21.3178C76.344 21.3178 76.3108 21.325 76.2803 21.339C76.2497 21.3529 76.2226 21.3733 76.2007 21.3986C76.1788 21.424 76.1627 21.4537 76.1535 21.4858C76.1442 21.5179 76.1421 21.5517 76.1472 21.5847V23.6316C76.1341 23.7962 76.1572 23.9617 76.2147 24.1166C76.2722 24.2714 76.3628 24.4121 76.4803 24.5289C76.5978 24.6456 76.7394 24.7356 76.8953 24.7928C77.0512 24.8499 77.2177 24.8728 77.3833 24.8598C77.7317 24.859 78.0777 24.8026 78.408 24.6928C78.4704 24.6722 78.5246 24.6324 78.5626 24.5791C78.6006 24.5258 78.6205 24.4619 78.6195 24.3965V21.5847C78.6246 21.5517 78.6225 21.5179 78.6132 21.4858C78.604 21.4537 78.5879 21.424 78.566 21.3986C78.5441 21.3733 78.517 21.3529 78.4864 21.339C78.4559 21.325 78.4227 21.3178 78.3891 21.3178C78.3555 21.3178 78.3222 21.325 78.2917 21.339C78.2612 21.3529 78.234 21.3733 78.2121 21.3986C78.1902 21.424 78.1741 21.4537 78.1649 21.4858C78.1557 21.5179 78.1535 21.5517 78.1586 21.5847V24.3319ZM72.8237 23.6424C72.8142 23.8066 72.8398 23.971 72.899 24.1246C72.9581 24.2783 73.0493 24.4178 73.1666 24.5338C73.2839 24.6499 73.4247 24.7399 73.5796 24.7979C73.7345 24.856 73.9 24.8807 74.0653 24.8706C74.3714 24.8726 74.6738 24.8044 74.949 24.6713C74.9884 24.6534 75.0217 24.6246 75.0448 24.5882C75.0679 24.5519 75.0799 24.5096 75.0791 24.4666C75.0763 24.4085 75.0511 24.3536 75.0087 24.3135C74.9663 24.2734 74.91 24.251 74.8514 24.2511C74.8174 24.2449 74.7825 24.2449 74.7484 24.2511C74.5368 24.3592 74.3032 24.4181 74.0653 24.4235C73.9603 24.4335 73.8543 24.4203 73.755 24.3849C73.6557 24.3494 73.5655 24.2926 73.4909 24.2185C73.4163 24.1443 73.3591 24.0547 73.3234 23.9561C73.2878 23.8574 73.2745 23.7521 73.2846 23.6478V22.5543C73.2745 22.4499 73.2878 22.3447 73.3234 22.246C73.3591 22.1473 73.4163 22.0577 73.4909 21.9836C73.5655 21.9095 73.6557 21.8527 73.755 21.8172C73.8543 21.7818 73.9603 21.7686 74.0653 21.7786C74.3033 21.7828 74.5372 21.8418 74.7484 21.951C74.7827 21.9668 74.8203 21.9741 74.8581 21.9722C74.8958 21.9704 74.9325 21.9594 74.9651 21.9403C74.9976 21.9213 75.025 21.8946 75.0449 21.8627C75.0647 21.8307 75.0765 21.7945 75.0791 21.757C75.0788 21.715 75.0664 21.6738 75.0433 21.6385C75.0203 21.6032 74.9876 21.5752 74.949 21.5577C74.6742 21.423 74.3718 21.3529 74.0653 21.353C73.8998 21.3437 73.7341 21.3691 73.5792 21.4278C73.4243 21.4865 73.2836 21.577 73.1664 21.6935C73.0492 21.81 72.9581 21.9498 72.899 22.1037C72.8399 22.2576 72.8143 22.4222 72.8237 22.5866V23.6424ZM70.8611 23.4C71.1484 23.5185 71.2894 23.6693 71.2894 23.9387C71.2847 24.0115 71.2652 24.0826 71.2321 24.1476C71.1989 24.2127 71.1528 24.2704 71.0965 24.3173C71.0402 24.3641 70.975 24.3991 70.9047 24.4201C70.8344 24.4412 70.7605 24.4478 70.6876 24.4396C70.4357 24.4349 70.1879 24.3761 69.9611 24.2673C69.9288 24.2617 69.8958 24.2617 69.8635 24.2673C69.8341 24.2658 69.8047 24.2703 69.7772 24.2805C69.7496 24.2906 69.7244 24.3063 69.7031 24.3264C69.6818 24.3466 69.6648 24.3708 69.6533 24.3977C69.6417 24.4246 69.6358 24.4535 69.6358 24.4827C69.6336 24.5274 69.6455 24.5716 69.6698 24.6093C69.6941 24.6469 69.7296 24.6761 69.7713 24.6928C70.0502 24.8261 70.3566 24.8925 70.6659 24.8867C70.8031 24.8947 70.9406 24.8752 71.0701 24.8293C71.1996 24.7834 71.3185 24.7121 71.4196 24.6196C71.5208 24.5272 71.6022 24.4154 71.659 24.291C71.7158 24.1666 71.7468 24.0321 71.7502 23.8956C71.7445 23.6945 71.6763 23.5001 71.5549 23.339C71.4336 23.178 71.2651 23.0582 71.0725 22.996L70.4328 22.7428C70.3351 22.7085 70.2504 22.6451 70.1902 22.5612C70.1301 22.4774 70.0974 22.3771 70.0966 22.2742C70.0966 21.9348 70.4165 21.8055 70.6767 21.8055C70.9201 21.8028 71.1609 21.8543 71.3816 21.9564H71.4737C71.5027 21.9578 71.5316 21.9535 71.5588 21.9436C71.586 21.9338 71.611 21.9186 71.6322 21.899C71.6534 21.8795 71.6705 21.8559 71.6824 21.8296C71.6943 21.8034 71.7008 21.775 71.7014 21.7463C71.7 21.7037 71.6865 21.6625 71.6625 21.6272C71.6386 21.592 71.6051 21.5642 71.5659 21.547C71.3054 21.43 71.0222 21.3712 70.7364 21.3746C70.6042 21.3613 70.4706 21.3747 70.3437 21.4139C70.2168 21.4532 70.0992 21.5175 69.9979 21.603C69.8966 21.6885 69.8138 21.7935 69.7544 21.9116C69.6949 22.0297 69.6601 22.1585 69.6521 22.2903C69.6443 22.4773 69.6977 22.6618 69.8043 22.8162C69.9108 22.9705 70.0647 23.0865 70.243 23.1468L70.8611 23.4ZM68.1069 22.8613H66.5563V22.5866C66.5563 22.3823 66.638 22.1864 66.7834 22.0419C66.9288 21.8975 67.126 21.8163 67.3316 21.8163C67.5372 21.8163 67.7344 21.8975 67.8798 22.0419C68.0252 22.1864 68.1069 22.3823 68.1069 22.5866V22.8613ZM68.2478 23.2869C68.29 23.2876 68.332 23.2799 68.3711 23.2642C68.4103 23.2485 68.4458 23.2251 68.4757 23.1954C68.5055 23.1658 68.529 23.1304 68.5449 23.0915C68.5607 23.0527 68.5685 23.011 68.5677 22.9691V22.6189C68.5677 22.2932 68.4375 21.9808 68.2057 21.7505C67.9738 21.5201 67.6594 21.3907 67.3316 21.3907C67.0037 21.3907 66.6893 21.5201 66.4575 21.7505C66.2257 21.9808 66.0954 22.2932 66.0954 22.6189V23.6639C66.0859 23.8282 66.1116 23.9925 66.1707 24.1462C66.2298 24.2998 66.321 24.4393 66.4383 24.5554C66.5556 24.6714 66.6964 24.7614 66.8513 24.8195C67.0062 24.8775 67.1718 24.9023 67.337 24.8921C67.6712 24.8965 68.0018 24.8227 68.3021 24.6767C68.3501 24.6575 68.3897 24.6218 68.4137 24.5761C68.4376 24.5305 68.4442 24.4778 68.4324 24.4277C68.4206 24.3775 68.3912 24.3332 68.3493 24.3028C68.3075 24.2724 68.2561 24.2579 68.2045 24.2619C68.1724 24.2539 68.1389 24.2539 68.1069 24.2619C67.8663 24.3773 67.604 24.4415 67.337 24.4504C67.2301 24.4563 67.1232 24.4392 67.0235 24.4003C66.9239 24.3613 66.8339 24.3014 66.7598 24.2247C66.6856 24.1479 66.629 24.0561 66.5939 23.9556C66.5588 23.8551 66.546 23.7483 66.5563 23.6424V23.2653L68.2478 23.2869Z" fill="#1D1D1C"/>
<path d="M24.8475 0H0V24.8921H24.8475V0Z" fill="#E20E17"/>
<path d="M4.67359 8.38177L4.16938 9.9547L2.52661 9.97625L3.86034 10.9297L3.37781 12.4649L4.67359 11.5222L5.98563 12.4434L5.48142 10.9082L6.79346 9.93316L5.17781 9.9547L4.67359 8.38177Z" fill="white"/>
<path d="M9.84571 8.38177L9.34149 9.9547L7.69873 9.97625L9.03246 10.9297L8.54993 12.4649L9.84571 11.5222L11.1578 12.4434L10.659 10.9082L11.971 9.93316L10.3499 9.9547L9.84571 8.38177Z" fill="white"/>
<path d="M15.0398 8.38177L14.541 9.9547L12.8982 9.97625L14.2319 10.9297L13.7494 12.4649L15.0398 11.5222L16.3518 12.4434L15.853 10.9082L17.165 9.93316L15.5548 9.9547L15.0398 8.38177Z" fill="white"/>
<path d="M12.4265 11.9639L11.9277 13.5369L10.2849 13.553L11.6132 14.5065L11.1307 16.0417L12.4265 15.099L13.7385 16.0255L13.2397 14.4903L14.5518 13.5153L12.9361 13.5369L12.4265 11.9639Z" fill="white"/>
<path d="M7.24336 11.9639L6.74457 13.5369L5.10181 13.553L6.43011 14.5065L5.95301 16.0417L7.24336 15.099L8.55541 16.0255L8.05119 14.4903L9.36323 13.5153L7.753 13.5369L7.24336 11.9639Z" fill="white"/>
<path d="M17.6314 11.9639L17.1326 13.5369L15.4844 13.553L16.8181 14.5065L16.341 16.0417L17.6314 15.099L18.9434 16.0255L18.4446 14.4903L19.7566 13.5153L18.1464 13.5369L17.6314 11.9639Z" fill="white"/>
<path d="M20.2282 8.38177L19.7294 9.9547L18.0867 9.97625L19.4204 10.9297L18.9379 12.4649L20.2282 11.5222L21.5403 12.4434L21.0415 10.9082L22.3535 9.93316L20.7433 9.9547L20.2282 8.38177Z" fill="white"/>
</g>
</g>
<defs>
<clipPath id="clip0_1348_77">
<rect width="146" height="39" fill="white"/>
</clipPath>
</defs>
</svg>
