<svg width="32" height="25" viewBox="0 0 32 25" fill="none" xmlns="http://www.w3.org/2000/svg">
<path d="M27.0834 0.166672H4.91675C3.65697 0.166672 2.44879 0.653947 1.55799 1.5213C0.667193 2.38866 0.166748 3.56505 0.166748 4.79167V20.2083C0.166748 21.435 0.667193 22.6114 1.55799 23.4787C2.44879 24.3461 3.65697 24.8333 4.91675 24.8333H27.0834C28.3432 24.8333 29.5514 24.3461 30.4422 23.4787C31.333 22.6114 31.8334 21.435 31.8334 20.2083V4.79167C31.8334 3.56505 31.333 2.38866 30.4422 1.5213C29.5514 0.653947 28.3432 0.166672 27.0834 0.166672ZM26.4342 3.25001L17.1242 12.315C16.9771 12.4595 16.8019 12.5742 16.609 12.6525C16.4161 12.7307 16.2091 12.771 16.0001 12.771C15.7911 12.771 15.5841 12.7307 15.3912 12.6525C15.1982 12.5742 15.0231 12.4595 14.8759 12.315L5.56591 3.25001H26.4342ZM28.6667 20.2083C28.6667 20.6172 28.4999 21.0093 28.203 21.2985C27.9061 21.5876 27.5033 21.75 27.0834 21.75H4.91675C4.49682 21.75 4.0941 21.5876 3.79716 21.2985C3.50023 21.0093 3.33341 20.6172 3.33341 20.2083V5.42375L12.6434 14.4888C13.534 15.3549 14.7413 15.8414 16.0001 15.8414C17.2588 15.8414 18.4661 15.3549 19.3567 14.4888L28.6667 5.42375V20.2083Z" fill="#1D1D1D"/>
</svg>
