<svg width="23" height="29" viewBox="0 0 23 29" fill="none" xmlns="http://www.w3.org/2000/svg">
<path d="M11.4999 12.9583C12.7196 12.9583 13.9118 12.5967 14.9259 11.9191C15.94 11.2415 16.7304 10.2784 17.1972 9.15155C17.6639 8.02474 17.786 6.78483 17.5481 5.58861C17.3102 4.3924 16.7228 3.2936 15.8604 2.43118C14.998 1.56875 13.8992 0.981436 12.703 0.743494C11.5068 0.505551 10.2668 0.627672 9.14004 1.09441C8.01323 1.56115 7.05013 2.35155 6.37252 3.36565C5.69492 4.37976 5.33325 5.57202 5.33325 6.79167C5.33325 8.42717 5.98295 9.99569 7.13943 11.1522C8.2959 12.3086 9.86442 12.9583 11.4999 12.9583ZM11.4999 3.70834C12.1097 3.70834 12.7059 3.88917 13.2129 4.22797C13.72 4.56677 14.1152 5.04832 14.3485 5.61173C14.5819 6.17513 14.643 6.79509 14.524 7.3932C14.405 7.99131 14.1114 8.5407 13.6802 8.97192C13.249 9.40313 12.6996 9.69679 12.1014 9.81576C11.5033 9.93473 10.8834 9.87367 10.32 9.6403C9.75657 9.40693 9.27502 9.01173 8.93622 8.50468C8.59742 7.99763 8.41658 7.4015 8.41658 6.79167C8.41658 5.97392 8.74144 5.18966 9.31967 4.61142C9.89791 4.03319 10.6822 3.70834 11.4999 3.70834ZM11.4999 16.0417C8.63779 16.0417 5.89289 17.1786 3.86906 19.2025C1.84523 21.2263 0.708252 23.9712 0.708252 26.8333C0.708252 27.2422 0.870677 27.6343 1.1598 27.9235C1.44891 28.2126 1.84104 28.375 2.24992 28.375C2.65879 28.375 3.05092 28.2126 3.34004 27.9235C3.62916 27.6343 3.79159 27.2422 3.79159 26.8333C3.79159 24.789 4.60371 22.8283 6.0493 21.3827C7.4949 19.9371 9.45554 19.125 11.4999 19.125C13.5443 19.125 15.5049 19.9371 16.9505 21.3827C18.3961 22.8283 19.2083 24.789 19.2083 26.8333C19.2083 27.2422 19.3707 27.6343 19.6598 27.9235C19.9489 28.2126 20.341 28.375 20.7499 28.375C21.1588 28.375 21.5509 28.2126 21.84 27.9235C22.1292 27.6343 22.2916 27.2422 22.2916 26.8333C22.2916 23.9712 21.1546 21.2263 19.1308 19.2025C17.1069 17.1786 14.362 16.0417 11.4999 16.0417Z" fill="#1D1D1D"/>
</svg>
